<svg width="400" height="400" viewBox="0 0 400 400" fill="none" xmlns="http://www.w3.org/2000/svg">
<rect width="400" height="400" fill="url(#paint0_linear_1_31)"/>
<path fill-rule="evenodd" clip-rule="evenodd" d="M225.867 13.6C225.333 17.8667 224.8 23.3333 224.667 25.7333L224.533 30.2667L236.533 33.3333C271.2 42.4 295.6 56.1333 319.2 79.8667C343.467 104.4 358.4 134 364.667 170C367.867 188.8 366.667 218 361.867 236.667C352.267 273.733 331.333 305.2 300.533 329.067C289.6 337.467 275.2 346 271.867 346C267.6 346 272 341.6 282.267 335.333C321.867 311.333 347.467 276 358 230.667C361.067 217.467 361.467 176.8 358.667 164C349.733 124.133 328.267 90.4 296.533 66.2667C282.267 55.4667 258.133 44 239.333 39.3333C228.533 36.5333 222.933 35.7333 221.867 36.6667C219.733 38.5333 212.8 78 208.533 113.6C206.133 134.267 204.4 188.667 206 191.733C207.2 193.733 208 193.2 211.733 188.267C220.533 176.533 234.667 172.8 244.533 179.467C250.267 183.333 255.867 191.2 259.333 199.867C260.667 203.333 262.667 206.533 263.6 206.933C264.533 207.333 268.933 205.2 273.6 202.267C287.2 193.6 292.8 190.933 295.333 191.867C298.533 193.067 297.067 194.267 281.467 204C266.667 213.333 265.2 215.733 262.8 234.667C259.867 256.533 252 272.933 236.933 287.6C227.333 297.2 222.533 299.733 218.133 298.133C209.867 294.933 208.267 283.733 213.867 268C218.4 255.2 227.467 242.4 242.933 227.333C254.133 216.267 255.867 213.867 255.867 210.133C255.867 204.667 248.667 190.933 243.6 186.533C238.533 182.4 229.2 182.133 222.933 186C214.533 191.067 207.867 209.733 207.867 228.267C207.867 238.133 207.6 239.333 205.333 239.333C202.4 239.333 201.733 236.533 200.4 219.067C199.067 200.4 198.8 200.133 191.467 207.333C183.067 215.733 182.4 219.333 183.333 248C184.4 275.867 182.533 304 177.733 332.933L177.541 334.135C174.775 351.395 174.127 355.437 175.543 356.381C175.976 356.669 176.603 356.668 177.42 356.667L177.6 356.667C182.667 356.667 186.533 358.267 186.533 360.133C186.533 361.467 184.533 362 179.333 362H172L169.333 369.333C167.733 373.467 166.533 377.2 166.533 377.867C166.533 380.667 158 391.2 154.667 392.667C154.041 392.927 153.443 393.15 152.87 393.333H146.473C144.616 392.435 143.08 390.559 141.6 387.6C138.8 382 138.133 378.533 136.533 360.4L135.6 351.333L124.133 345.067C106.667 335.733 92.2667 324.8 79.6 311.467C58.9333 289.733 46 266.533 38.1333 236.933C34.2666 222.133 34 220 34 196C34 171.867 34.2666 169.867 38.2666 154.933C45.8667 126.267 60.4 100.533 80.5333 80C100 60.2667 121.2 46.8 145.2 38.6667C164.667 32.1333 177.333 30 197.333 30H214.4L215.867 24.6667C216.292 22.7935 216.99 20.1048 217.647 17.5726V17.5723L217.647 17.572C218.019 16.1391 218.378 14.7564 218.667 13.6C220.533 6.4 220.8 6 224.133 6C226.8 6 226.8 6.53333 225.867 13.6ZM269.867 316.267L269.067 322H276C279.867 322 282.533 322.4 282 322.933C281.467 323.6 278.133 324 274.8 324C268.8 324 268.533 324.133 265.2 330.267C263.333 333.6 260.667 337.6 259.333 339.2C257.333 341.467 256.933 343.6 257.333 352.533C258 365.6 260.933 370.667 268 370.667C271.733 370.667 272.933 369.867 275.6 365.333C278.533 360.267 278.667 360.267 277.867 364C277.067 368.4 270.4 375.333 267.067 375.333C263.067 375.333 258 370.533 255.067 363.733C253.333 359.867 251.6 356.667 251.2 356.667C250.933 356.667 248.533 358.533 245.867 360.8C242.533 363.733 241.2 366 241.2 368.933C241.2 376.533 236 382.933 231.2 381.2C228 380 228.933 375.067 233.333 370L237.333 365.333L231.733 360.533C227.333 356.8 226.133 354.8 226.133 351.467C226.133 344.133 234.133 338.133 238.267 342.267C240.8 344.8 240.133 346.267 237.067 345.333C234 344.267 229.2 347.867 229.2 351.2C229.2 353.733 237.067 362 239.467 362C240.4 362 243.6 360.533 246.4 358.667L251.467 355.2L252.4 342.933C252.933 336.133 253.467 329.067 253.467 326.933C253.6 324.933 254.133 323.333 254.667 323.333C255.333 323.333 256.4 321.067 257.2 318.267C261.467 304.4 271.867 302.667 269.867 316.267ZM250.933 326.133C250.267 326.8 246 327.867 241.733 328.267C236.4 328.8 234.267 328.533 235.2 327.6C236.933 325.867 240.533 325.067 247.2 324.8C250.8 324.667 252 325.067 250.933 326.133ZM198.533 356C198.533 360.667 199.067 364.933 199.867 365.333C200.533 365.733 202.933 363.467 205.067 360.4C210.75 352.213 212.327 349.94 213.368 350.164C213.768 350.25 214.089 350.704 214.533 351.333C215.2 352.4 215.867 355.467 215.867 358.133C215.867 360.933 216.933 364.4 218.4 366.133L220.933 369.333L225.067 365.467C229.467 361.2 230.667 362.133 226.8 366.8C224.133 370.133 220.667 371.6 217.867 370.4C215.333 369.467 211.867 363.067 211.867 359.333C211.867 355.067 209.467 356.133 206.667 361.733C202.8 369.333 200.4 370.933 197.2 368C195.067 366 194.533 363.867 194.533 356.667C194.533 351.733 194.933 347.333 195.333 346.933C197.467 344.933 198.533 348.133 198.533 356ZM173.867 36.1333C155.867 39.3333 144.667 42.9333 128.933 50.5333C110.533 59.4667 94 71.7333 80.9333 86.2667C62.9333 106.4 54.9333 120 46.5333 144.4C26.6666 202.8 42.4 269.333 86 311.467C91.8667 317.067 100.133 324.267 104.667 327.6C112.667 333.333 133.067 344.667 135.6 344.667C136.267 344.667 137.333 339.067 137.867 332.267C140.4 298.4 149.067 266.933 162.933 240.667C172.667 222.4 174 216 171.067 203.067C168.8 193.333 169.2 190 172.4 190C174.933 190 176.667 193.2 177.867 199.733C178.4 202.4 179.333 205.067 180.133 205.467C181.6 206.4 185.467 203.867 192.667 197.067L198.133 192L199.067 157.333C199.467 138.267 200.8 116.667 201.867 109.333C202.933 102 204.8 88.8 205.867 80.1333C207.067 71.4667 209.2 58.5333 210.533 51.4667C210.859 49.8584 211.167 48.3972 211.446 47.0698L211.447 47.0639L211.448 47.0611C212.892 40.1896 213.583 36.9045 212.253 35.361C211.034 33.9472 208.12 33.9946 202.537 34.0855C201.441 34.1033 200.242 34.1229 198.933 34.1333C190.933 34.1333 179.733 35.0667 173.867 36.1333ZM172.933 177.6C172.4 185.067 168.933 187.2 166.4 181.467C164 176.4 165.867 171.333 170 171.333C173.2 171.333 173.333 171.733 172.933 177.6ZM215.867 281.867C215.867 268.667 234.667 240.4 252.933 226L256.533 223.067L256.933 230C257.867 246.4 243.867 274.8 228.133 288C220.8 294.133 215.867 291.733 215.867 281.867ZM170.133 238.8C165.6 245.6 155.067 272.8 151.867 285.733C145.467 312.133 141.6 342.533 144 347.467C145.333 350.133 163.467 354.933 165.333 353.067C167.467 350.933 172 327.067 173.867 307.333C176 286 176.533 238.4 174.667 235.467C173.733 234 172.667 234.8 170.133 238.8ZM143.867 367.333C143.333 361.067 143.2 355.6 143.467 354.933C143.622 354.674 143.748 354.465 143.926 354.32C144.661 353.721 146.292 354.223 154.667 356.8C160.4 358.533 163.867 360.267 163.867 361.467C163.867 367.067 153.333 387.333 150.533 387.333C147.867 387.333 144.8 378.133 143.867 367.333ZM264.667 311.6C261.467 316.533 259.333 322 260.267 322.8C260.667 323.333 262.667 323.333 264.533 322.8C267.6 322 267.867 321.333 267.867 315.333C267.867 311.6 267.6 308.667 267.2 308.667C266.933 308.667 265.733 310 264.667 311.6ZM257.467 335.2C257.2 333.333 257.733 330.267 258.4 328.267C259.333 326 260.8 324.667 262.533 324.667C266.133 324.667 265.867 327.067 261.6 333.333C258 338.533 257.867 338.533 257.467 335.2ZM233.867 372.667C231.467 377.467 231.333 378 233.6 378C235.333 378 238.533 372.667 238.533 370C238.533 367.333 235.867 368.8 233.867 372.667Z" fill="#D9D9D9"/>
<defs>
<linearGradient id="paint0_linear_1_31" x1="57" y1="78" x2="400" y2="400" gradientUnits="userSpaceOnUse">
<stop/>
<stop offset="0.5" stop-color="#6F0000"/>
<stop offset="1" stop-color="#B60000"/>
</linearGradient>
</defs>
</svg>
