<svg width="333" height="388" viewBox="0 0 333 388" fill="none" xmlns="http://www.w3.org/2000/svg">
<path fill-rule="evenodd" clip-rule="evenodd" d="M191.867 7.6C191.333 11.8667 190.8 17.3333 190.667 19.7333L190.533 24.2667L202.533 27.3333C237.2 36.4 261.6 50.1333 285.2 73.8667C309.467 98.4 324.4 128 330.667 164C333.867 182.8 332.667 212 327.867 230.667C318.267 267.733 297.333 299.2 266.533 323.067C255.6 331.467 241.2 340 237.867 340C233.6 340 238 335.6 248.267 329.333C287.867 305.333 313.467 270 324 224.667C327.067 211.467 327.467 170.8 324.667 158C315.733 118.133 294.267 84.4 262.533 60.2667C248.267 49.4667 224.133 38 205.333 33.3333C194.533 30.5333 188.933 29.7333 187.867 30.6667C185.733 32.5333 178.8 72 174.533 107.6C172.133 128.267 170.4 182.667 172 185.733C173.2 187.733 174 187.2 177.733 182.267C186.533 170.533 200.667 166.8 210.533 173.467C216.267 177.333 221.867 185.2 225.333 193.867C226.667 197.333 228.667 200.533 229.6 200.933C230.533 201.333 234.933 199.2 239.6 196.267C253.2 187.6 258.8 184.933 261.333 185.867C264.533 187.067 263.067 188.267 247.467 198C232.667 207.333 231.2 209.733 228.8 228.667C225.867 250.533 218 266.933 202.933 281.6C193.333 291.2 188.533 293.733 184.133 292.133C175.867 288.933 174.267 277.733 179.867 262C184.4 249.2 193.467 236.4 208.933 221.333C220.133 210.267 221.867 207.867 221.867 204.133C221.867 198.667 214.667 184.933 209.6 180.533C204.533 176.4 195.2 176.133 188.933 180C180.533 185.067 173.867 203.733 173.867 222.267C173.867 232.133 173.6 233.333 171.333 233.333C168.4 233.333 167.733 230.533 166.4 213.067C165.067 194.4 164.8 194.133 157.467 201.333C149.067 209.733 148.4 213.333 149.333 242C150.4 269.867 148.533 298 143.733 326.933L143.541 328.135C140.775 345.395 140.127 349.437 141.543 350.381C141.976 350.669 142.603 350.668 143.42 350.667L143.6 350.667C148.667 350.667 152.533 352.267 152.533 354.133C152.533 355.467 150.533 356 145.333 356H138L135.333 363.333C133.733 367.467 132.533 371.2 132.533 371.867C132.533 374.667 124 385.2 120.667 386.667C120.041 386.927 119.443 387.15 118.87 387.333H112.473C110.616 386.435 109.08 384.559 107.6 381.6C104.8 376 104.133 372.533 102.533 354.4L101.6 345.333L90.1333 339.067C72.6666 329.733 58.2667 318.8 45.6 305.467C24.9333 283.733 12 260.533 4.1333 230.933C0.266602 216.133 0 214 0 190C0 165.867 0.266602 163.867 4.2666 148.933C11.8667 120.267 26.4 94.5333 46.5333 74C66 54.2667 87.2 40.8 111.2 32.6667C130.667 26.1333 143.333 24 163.333 24H180.4L181.867 18.6667C182.292 16.7935 182.99 14.1048 183.647 11.5726V11.5723L183.647 11.572C184.019 10.1391 184.378 8.75636 184.667 7.6C186.533 0.399998 186.8 0 190.133 0C192.8 0 192.8 0.533333 191.867 7.6ZM235.867 310.267L235.067 316H242C245.867 316 248.533 316.4 248 316.933C247.467 317.6 244.133 318 240.8 318C234.8 318 234.533 318.133 231.2 324.267C229.333 327.6 226.667 331.6 225.333 333.2C223.333 335.467 222.933 337.6 223.333 346.533C224 359.6 226.933 364.667 234 364.667C237.733 364.667 238.933 363.867 241.6 359.333C244.533 354.267 244.667 354.267 243.867 358C243.067 362.4 236.4 369.333 233.067 369.333C229.067 369.333 224 364.533 221.067 357.733C219.333 353.867 217.6 350.667 217.2 350.667C216.933 350.667 214.533 352.533 211.867 354.8C208.533 357.733 207.2 360 207.2 362.933C207.2 370.533 202 376.933 197.2 375.2C194 374 194.933 369.067 199.333 364L203.333 359.333L197.733 354.533C193.333 350.8 192.133 348.8 192.133 345.467C192.133 338.133 200.133 332.133 204.267 336.267C206.8 338.8 206.133 340.267 203.067 339.333C200 338.267 195.2 341.867 195.2 345.2C195.2 347.733 203.067 356 205.467 356C206.4 356 209.6 354.533 212.4 352.667L217.467 349.2L218.4 336.933C218.933 330.133 219.467 323.067 219.467 320.933C219.6 318.933 220.133 317.333 220.667 317.333C221.333 317.333 222.4 315.067 223.2 312.267C227.467 298.4 237.867 296.667 235.867 310.267ZM216.933 320.133C216.267 320.8 212 321.867 207.733 322.267C202.4 322.8 200.267 322.533 201.2 321.6C202.933 319.867 206.533 319.067 213.2 318.8C216.8 318.667 218 319.067 216.933 320.133ZM164.533 350C164.533 354.667 165.067 358.933 165.867 359.333C166.533 359.733 168.933 357.467 171.067 354.4C176.75 346.213 178.327 343.94 179.368 344.164C179.768 344.25 180.089 344.704 180.533 345.333C181.2 346.4 181.867 349.467 181.867 352.133C181.867 354.933 182.933 358.4 184.4 360.133L186.933 363.333L191.067 359.467C195.467 355.2 196.667 356.133 192.8 360.8C190.133 364.133 186.667 365.6 183.867 364.4C181.333 363.467 177.867 357.067 177.867 353.333C177.867 349.067 175.467 350.133 172.667 355.733C168.8 363.333 166.4 364.933 163.2 362C161.067 360 160.533 357.867 160.533 350.667C160.533 345.733 160.933 341.333 161.333 340.933C163.467 338.933 164.533 342.133 164.533 350ZM139.867 30.1333C121.867 33.3333 110.667 36.9333 94.9333 44.5333C76.5333 53.4667 60 65.7333 46.9333 80.2667C28.9333 100.4 20.9333 114 12.5333 138.4C-7.33337 196.8 8.40002 263.333 52 305.467C57.8667 311.067 66.1333 318.267 70.6666 321.6C78.6666 327.333 99.0667 338.667 101.6 338.667C102.267 338.667 103.333 333.067 103.867 326.267C106.4 292.4 115.067 260.933 128.933 234.667C138.667 216.4 140 210 137.067 197.067C134.8 187.333 135.2 184 138.4 184C140.933 184 142.667 187.2 143.867 193.733C144.4 196.4 145.333 199.067 146.133 199.467C147.6 200.4 151.467 197.867 158.667 191.067L164.133 186L165.067 151.333C165.467 132.267 166.8 110.667 167.867 103.333C168.933 96 170.8 82.8 171.867 74.1333C173.067 65.4667 175.2 52.5333 176.533 45.4667C176.859 43.8584 177.167 42.3972 177.446 41.0698L177.447 41.0639L177.448 41.0611C178.892 34.1896 179.583 30.9045 178.253 29.361C177.034 27.9472 174.12 27.9946 168.537 28.0855C167.441 28.1033 166.242 28.1229 164.933 28.1333C156.933 28.1333 145.733 29.0667 139.867 30.1333ZM138.933 171.6C138.4 179.067 134.933 181.2 132.4 175.467C130 170.4 131.867 165.333 136 165.333C139.2 165.333 139.333 165.733 138.933 171.6ZM181.867 275.867C181.867 262.667 200.667 234.4 218.933 220L222.533 217.067L222.933 224C223.867 240.4 209.867 268.8 194.133 282C186.8 288.133 181.867 285.733 181.867 275.867ZM136.133 232.8C131.6 239.6 121.067 266.8 117.867 279.733C111.467 306.133 107.6 336.533 110 341.467C111.333 344.133 129.467 348.933 131.333 347.067C133.467 344.933 138 321.067 139.867 301.333C142 280 142.533 232.4 140.667 229.467C139.733 228 138.667 228.8 136.133 232.8ZM109.867 361.333C109.333 355.067 109.2 349.6 109.467 348.933C109.622 348.674 109.748 348.465 109.926 348.32C110.661 347.721 112.292 348.223 120.667 350.8C126.4 352.533 129.867 354.267 129.867 355.467C129.867 361.067 119.333 381.333 116.533 381.333C113.867 381.333 110.8 372.133 109.867 361.333ZM230.667 305.6C227.467 310.533 225.333 316 226.267 316.8C226.667 317.333 228.667 317.333 230.533 316.8C233.6 316 233.867 315.333 233.867 309.333C233.867 305.6 233.6 302.667 233.2 302.667C232.933 302.667 231.733 304 230.667 305.6ZM223.467 329.2C223.2 327.333 223.733 324.267 224.4 322.267C225.333 320 226.8 318.667 228.533 318.667C232.133 318.667 231.867 321.067 227.6 327.333C224 332.533 223.867 332.533 223.467 329.2ZM199.867 366.667C197.467 371.467 197.333 372 199.6 372C201.333 372 204.533 366.667 204.533 364C204.533 361.333 201.867 362.8 199.867 366.667Z" fill="#D9D9D9"/>
</svg>
