<?xml version="1.0" encoding="UTF-8"?>
<svg version="1.1" xmlns="http://www.w3.org/2000/svg" width="512" height="512">
<path d="M0 0 C1.21811738 1.10493485 2.40506248 2.24531319 3.55664062 3.41943359 C4.42156128 4.22293243 4.42156128 4.22293243 5.30395508 5.04266357 C7.06638657 6.70027128 8.76752827 8.4043693 10.46289062 10.13037109 C11.0730603 10.74337067 11.68322998 11.35637024 12.31188965 11.98794556 C14.23161719 13.91873684 16.14421504 15.85641241 18.05664062 17.79443359 C19.36867238 19.11651303 20.68116848 20.43813182 21.99414062 21.75927734 C25.18702447 24.97403802 28.37354061 28.19498636 31.55664062 31.41943359 C36.19371333 27.55198004 40.5652403 23.53101406 44.78710938 19.21630859 C45.93085902 18.05992944 47.07474308 16.90368323 48.21875 15.74755859 C49.99143403 13.94996277 51.7624513 12.15078017 53.53100586 10.34912109 C55.25781785 8.59212257 56.99078694 6.84138556 58.72460938 5.09130859 C59.25072311 4.55173523 59.77683685 4.01216187 60.31889343 3.45623779 C64.8497573 -1.1053884 67.88731071 -2.88529539 74.30664062 -3.14306641 C80.18881721 -3.07106914 83.00775796 -1.47666792 87.13085938 2.59521484 C89.49022203 5.61390623 89.75961023 8.45692963 89.86914062 12.16943359 C89.90652344 12.98927734 89.94390625 13.80912109 89.98242188 14.65380859 C88.87305988 21.85957272 83.59950421 26.79125216 78.60351562 31.66552734 C77.94329407 32.32150406 77.28307251 32.97748077 76.60284424 33.65333557 C74.51109987 35.72840778 72.40912545 37.79275023 70.30664062 39.85693359 C68.87886594 41.26964668 67.45177533 42.68305148 66.02539062 44.09716797 C62.54366787 47.54597365 59.05273653 50.98520145 55.55664062 54.41943359 C59.34965614 58.96114858 63.2751473 63.26080849 67.50585938 67.39599609 C68.61210973 68.48961404 69.71822564 69.58336799 70.82421875 70.67724609 C72.54049821 72.36865194 74.25836578 74.05838446 75.97875977 75.74560547 C77.65890043 77.39546689 79.33269926 79.05156013 81.00585938 80.70849609 C81.51839767 81.20757477 82.03093597 81.70665344 82.55900574 82.22085571 C86.27300364 85.90876086 89.30618521 89.11762911 89.88476562 94.43505859 C89.85898437 95.50240234 89.83320313 96.56974609 89.80664062 97.66943359 C89.79117187 98.72646484 89.77570313 99.78349609 89.75976562 100.87255859 C89.55664062 104.41943359 89.55664062 104.41943359 89.10766602 106.53955078 C88.21353715 111.14533672 88.31069556 113.75518511 90.95898438 117.71630859 C92.11264934 119.21997693 93.29290067 120.70349229 94.49414062 122.16943359 C95.12513672 122.98089844 95.75613281 123.79236328 96.40625 124.62841797 C97.75117005 126.35609249 99.10612528 128.07599462 100.47021484 129.78857422 C103.90028769 134.11369298 107.21991874 138.52219373 110.55664062 142.91943359 C111.90289883 144.68122567 113.24925278 146.4429446 114.59570312 148.20458984 C118.41862791 153.22299648 122.18909752 158.27836068 125.93164062 163.35693359 C126.45371094 164.06462891 126.97578125 164.77232422 127.51367188 165.50146484 C128.55873644 166.92442059 129.5859321 168.36067233 130.59486198 169.80947304 C132.53788637 172.50471776 132.53788637 172.50471776 135.04150581 174.99965477 C145.27032437 186.18544397 143.92852037 199.0543263 143.75537109 213.4296875 C143.7535512 216.1610663 143.7667783 218.89232662 143.77926636 221.62367249 C143.80050345 228.24506361 143.76889132 234.865172 143.71898983 241.48636772 C143.66285806 249.20996781 143.66044293 256.93331544 143.66010381 264.65708558 C143.65773425 278.44435199 143.60793957 292.23103312 143.53076172 306.01806641 C143.45605403 319.37263001 143.4135678 332.72676834 143.40771484 346.08154297 C143.40734922 346.90445177 143.4069836 347.72736057 143.4066069 348.575206 C143.40624896 349.39674398 143.40589102 350.21828196 143.40552223 351.06471503 C143.40479135 352.71913632 143.4040466 354.37355761 143.40328789 356.0279789 C143.40291686 356.8440382 143.40254583 357.66009751 143.40216356 358.50088588 C143.39500989 371.26282244 143.35810308 384.0246941 143.3183014 396.78656424 C143.30429828 401.39873687 143.29470883 406.01089412 143.2883787 410.62308337 C143.27824753 417.93952843 143.25520269 425.25567936 143.20577811 432.57197358 C143.18345442 435.91133589 143.16922745 439.25016846 143.16804504 442.58964348 C143.16551438 446.2196999 143.13830746 449.84878214 143.10494995 453.47866821 C143.10978012 454.51973901 143.11461029 455.56080981 143.11958683 456.63342822 C142.91815395 470.70441343 137.01102418 483.85652818 127.49414062 494.16943359 C116.56505176 504.42711085 103.18066241 509.90636045 88.24758911 509.80711365 C87.25929198 509.81249919 86.27099485 509.81788472 85.25274932 509.82343346 C81.96736082 509.83765017 78.68237881 509.83062478 75.39697266 509.82348633 C73.03075845 509.82919318 70.66454699 509.83615866 68.29833984 509.84428406 C61.88919993 509.86219595 55.48019708 509.86105068 49.07103968 509.85534167 C45.06305006 509.85227358 41.05507225 509.85524493 37.04708481 509.85981941 C36.38026696 509.86056783 35.71344912 509.86131626 35.02642467 509.86208736 C33.67147478 509.86361895 32.31652489 509.8651573 30.96157502 509.86670233 C18.27483846 509.88040839 5.58816369 509.87500313 -7.09857143 509.86351711 C-18.68437231 509.85358771 -30.27001341 509.86652364 -41.85578965 509.8904513 C-53.77555157 509.91488171 -65.6952392 509.92444046 -77.61502564 509.91779858 C-84.29767029 509.91431496 -90.98021054 509.91681963 -97.66283798 509.93404961 C-103.94861462 509.94954966 -110.23408693 509.94552884 -116.51985168 509.92674446 C-118.82077604 509.92306705 -121.1217231 509.92614216 -123.4226265 509.93663025 C-145.70629337 510.03041465 -145.70629337 510.03041465 -155.44335938 505.41943359 C-156.59191406 504.88962891 -157.74046875 504.35982422 -158.92382812 503.81396484 C-172.54361898 495.85434681 -182.95714134 483.81903379 -187.05664062 468.28271484 C-187.9447534 461.70709199 -187.65061337 455.03620917 -187.44335938 448.41943359 C-188.49912233 448.08521267 -188.49912233 448.08521267 -189.57621384 447.74423981 C-193.07872174 446.12585519 -195.56566471 443.85899601 -198.31768799 441.22253418 C-198.88048312 440.69278913 -199.44327826 440.16304408 -200.02312779 439.61724615 C-206.95272439 433.05690697 -213.70457438 426.31424771 -220.45410156 419.56982422 C-221.90919178 418.1193759 -223.36447398 416.66912014 -224.81993103 415.21903992 C-228.73328762 411.31866677 -232.64342633 407.41508427 -236.55253124 403.51045036 C-239.00172442 401.06420739 -241.45149537 398.61854444 -243.90143585 396.17304993 C-251.58756395 388.50055203 -259.27172017 380.82608748 -266.95297599 373.14871168 C-275.78325513 364.32291964 -284.62005069 355.50372117 -293.46253276 346.69015551 C-300.32680239 339.8475476 -307.18525241 332.99914174 -314.03936696 326.14636183 C-318.12095998 322.06581246 -322.20490242 317.98768549 -326.29494476 313.91560364 C-330.13974937 310.08736043 -333.9772275 306.25191806 -337.80938911 302.41102028 C-339.20914558 301.01049809 -340.61142647 299.61249323 -342.01653099 298.21733665 C-362.57558843 277.79523048 -362.57558843 277.79523048 -366.44335938 266.41943359 C-366.81460937 265.36755859 -367.18585938 264.31568359 -367.56835938 263.23193359 C-371.97402564 249.07086346 -370.70653621 233.00977725 -364.15820312 219.83349609 C-356.6442064 206.22876665 -343.65516743 195.48233675 -332.77807617 184.60888672 C-330.98995956 182.81777426 -329.20204693 181.02645813 -327.4143219 179.23495483 C-323.08278908 174.89553828 -318.7489037 170.55848427 -314.4137074 166.22272795 C-310.89112383 162.69966743 -307.36933473 159.17581466 -303.84809303 155.65141296 C-293.85238028 145.64691306 -283.85459385 135.64449216 -273.8541105 125.64476091 C-273.31661683 125.10730719 -272.77912316 124.56985347 -272.2253418 124.01611328 C-271.68718866 123.47800103 -271.14903553 122.93988878 -270.59457473 122.38547009 C-261.85102002 113.64232284 -253.11247959 104.89418273 -244.37616672 96.14379984 C-235.39377799 87.14705927 -226.40767819 78.15404024 -217.41767818 69.16490507 C-212.3750352 64.12259414 -207.33394524 59.07875275 -202.2968502 54.03089905 C-197.56790028 49.29191241 -192.8338326 44.55809926 -188.09621239 39.82777786 C-186.35618381 38.08879865 -184.617872 36.34809973 -182.88138199 34.60558701 C-180.51658046 32.2331133 -178.14574382 29.86684192 -175.77323914 27.5020752 C-174.73769592 26.45881663 -174.73769592 26.45881663 -173.68123263 25.39448214 C-173.04484073 24.76268903 -172.40844883 24.13089593 -171.75277233 23.47995758 C-171.20629707 22.93326495 -170.6598218 22.38657231 -170.09678668 21.82331324 C-166.53572803 18.79971629 -163.07089935 18.04277899 -158.51382446 17.38168335 C-157.30009155 17.20223679 -156.08635864 17.02279022 -154.83584595 16.83790588 C-153.49361191 16.6466754 -152.15135654 16.45559462 -150.80908203 16.26464844 C-149.3927187 16.0580292 -147.97644052 15.85082548 -146.5602417 15.64308167 C-142.71349852 15.08076802 -138.86551947 14.52739146 -135.01717806 13.97613478 C-131.79690557 13.51407422 -128.57724947 13.04779599 -125.35757864 12.58156455 C-117.75020616 11.48008615 -110.14179979 10.38596732 -102.53271484 9.29638672 C-94.71067016 8.1761812 -86.89047064 7.04372161 -79.07109034 5.90507925 C-72.34066496 4.92545791 -65.60914961 3.95359456 -58.87672842 2.98778498 C-54.86381079 2.4120287 -50.85135253 1.83346583 -46.83992386 1.24741745 C-43.05728805 0.69514045 -39.27336482 0.15267397 -35.48830414 -0.38272285 C-34.1101141 -0.57925463 -32.7323838 -0.77904686 -31.35521317 -0.98259926 C-6.54109595 -4.64282154 -6.54109595 -4.64282154 0 0 Z M-34.81689453 31.02416992 C-36.04858871 31.19491531 -37.2802829 31.36566071 -38.54930115 31.5415802 C-41.91124758 32.00899716 -45.27251057 32.48081563 -48.63345385 32.95536256 C-50.73546784 33.25189454 -52.83766153 33.54711732 -54.93992233 33.84189415 C-62.27968582 34.871177 -69.61867814 35.90577947 -76.95703125 36.94506836 C-83.7897745 37.91259799 -90.62413362 38.86805556 -97.45933878 39.8180216 C-103.33750353 40.63554821 -109.21441057 41.46172681 -115.09042394 42.29457492 C-118.59583037 42.79125711 -122.10164636 43.28439416 -125.60878372 43.76871681 C-129.51720619 44.30879265 -133.42294896 44.86682311 -137.32861328 45.42651367 C-138.48718338 45.58404114 -139.64575348 45.7415686 -140.83943176 45.90386963 C-141.90478653 46.05944839 -142.9701413 46.21502716 -144.06777954 46.37532043 C-144.99062052 46.50529325 -145.91346149 46.63526606 -146.86426735 46.76917744 C-153.25895026 48.38144326 -157.26496109 52.95510886 -161.76855469 57.4839325 C-162.85997961 58.5696191 -162.85997961 58.5696191 -163.97345352 59.67723876 C-166.41091433 62.10437893 -168.84116513 64.53861087 -171.27148438 66.97290039 C-173.01737437 68.71444335 -174.76368192 70.4555678 -176.51037598 72.19630432 C-180.76188143 76.43579871 -185.0086231 80.6800104 -189.25295448 84.92668309 C-192.70419208 88.37970473 -196.1571931 91.83095336 -199.6114502 95.28095436 C-200.10334343 95.77225241 -200.59523667 96.26355046 -201.10203576 96.76973632 C-202.10138426 97.76787305 -203.10073394 98.76600859 -204.10008478 99.76414297 C-213.47048749 109.12367102 -222.83436337 118.4897079 -232.19628 127.85772303 C-240.7539769 136.42058651 -249.31985169 144.97521514 -257.88963556 153.52598038 C-266.6949434 162.31189701 -275.49466257 171.10337539 -284.28840256 179.90087062 C-289.22309064 184.83746913 -294.15994484 189.77185309 -299.10266113 194.70041466 C-303.75205783 199.33663099 -308.39354481 203.9806621 -313.02983093 208.62999535 C-314.73120061 210.33373101 -316.4351251 212.03491988 -318.14179993 213.73334122 C-320.47427253 216.05534699 -322.7972703 218.38644547 -325.11816406 220.72001648 C-325.79277805 221.38725619 -326.46739204 222.05449589 -327.16244888 222.74195498 C-333.85680007 229.51325925 -338.53839166 235.84377791 -338.75585938 245.60693359 C-338.79324219 246.69361328 -338.830625 247.78029297 -338.86914062 248.89990234 C-337.91776519 256.76402403 -333.38129016 262.06964509 -327.9039917 267.46673584 C-327.2487666 268.12820091 -326.59354149 268.78966597 -325.91846108 269.47117543 C-323.73400152 271.67151092 -321.53561903 273.85736343 -319.33691406 276.04345703 C-317.76228753 277.62350704 -316.18851248 279.204406 -314.61552429 280.78608704 C-310.34989256 285.06992791 -306.07173612 289.34105064 -301.79065228 293.60944271 C-297.30807177 298.08188325 -292.83527364 302.56408981 -288.36090088 307.04473877 C-280.36481998 315.04855877 -272.35871039 323.04225202 -264.34858969 331.03201261 C-257.09408053 338.26865208 -249.85012258 345.51571455 -242.61376953 352.77050781 C-234.19952451 361.20618476 -225.77856664 369.63507106 -217.34769177 378.05413651 C-212.88880023 382.50679786 -208.43264132 386.96210365 -203.98348236 391.42449188 C-199.79988465 395.61965951 -195.60659336 399.80489189 -191.4056797 403.98271751 C-189.8671768 405.51593956 -188.33205252 407.05256062 -186.8006115 408.59283638 C-184.7064265 410.6979841 -182.60025406 412.79037442 -180.49066162 414.88006592 C-179.89025016 415.48940027 -179.28983869 416.09873462 -178.67123294 416.72653365 C-173.86132554 421.4490771 -168.848782 424.87838514 -162.09960938 425.95068359 C-161.05804688 425.94037109 -160.01648438 425.93005859 -158.94335938 425.91943359 C-157.38101563 425.93490234 -157.38101563 425.93490234 -155.78710938 425.95068359 C-147.61372846 424.65210906 -142.23340654 419.80208855 -136.55412292 414.10542297 C-135.80211414 413.36670981 -135.05010536 412.62799665 -134.27530843 411.86689824 C-131.76865441 409.39948042 -129.27635561 406.91806835 -126.78393555 404.4362793 C-124.98543771 402.65958251 -123.18617267 400.88366205 -121.38619995 399.10845947 C-115.99792263 393.78744959 -110.6266306 388.44953518 -105.25810406 383.10861018 C-102.72407291 380.58853423 -100.18787417 378.07064202 -97.65184975 375.55257225 C-89.21394438 367.17304134 -80.7804398 358.78912523 -72.36103344 350.39100361 C-71.82299623 349.85434779 -71.28495903 349.31769197 -70.73061766 348.76477386 C-70.19135336 348.22689358 -69.65208905 347.68901331 -69.09648341 347.13483363 C-68.00386561 346.04503974 -66.91123896 344.95525472 -65.81860352 343.86547852 C-65.27663196 343.3249173 -64.7346604 342.78435608 -64.17626546 342.22741421 C-55.39911197 333.47474715 -46.59184854 324.75305624 -37.77134403 316.04409943 C-28.69895422 307.08551006 -19.65331751 298.1006047 -10.63329297 289.08928746 C-5.57491784 284.03705755 -0.50588585 278.996689 4.59311867 273.98543739 C9.39199166 269.26892702 14.15331695 264.51745864 18.89220047 259.74055481 C20.63156425 257.99866656 22.38284334 256.26857833 24.14698982 254.55179405 C34.96624111 244.0065142 40.83900668 236.68937477 41.55664062 221.41943359 C41.85444702 219.33266613 42.17499693 217.24893664 42.52482605 215.17025757 C42.80793656 213.22034482 43.08826374 211.27002615 43.3659668 209.31933594 C43.60070961 207.69387848 43.60070961 207.69387848 43.8401947 206.0355835 C44.34619854 202.52591773 44.84815738 199.01568988 45.34960938 195.50537109 C45.70394529 193.03535548 46.05838337 190.56535452 46.41291809 188.09536743 C47.15018165 182.95382741 47.88524418 177.81197838 48.61889648 172.66992188 C49.37088447 167.40117662 50.12631576 162.1329463 50.88549805 156.86523438 C51.80762496 150.466122 52.72496154 144.06634188 53.63854408 137.66600418 C53.98584936 135.2377355 54.33471947 132.80969008 54.68520164 130.3818779 C55.17330504 126.9970951 55.65517768 123.61148072 56.13549805 120.22558594 C56.28039673 119.23017792 56.42529541 118.2347699 56.57458496 117.209198 C58.35396295 107.80347211 58.35396295 107.80347211 55.26171875 99.32983398 C54.22157594 98.29078992 53.1623726 97.2705828 52.08789062 96.26708984 C51.5329895 95.72209335 50.97808838 95.17709686 50.40637207 94.61558533 C48.63893424 92.88717713 46.84870627 91.18475677 45.05664062 89.48193359 C43.85062266 88.31104394 42.64617596 87.13853356 41.44335938 85.96435547 C38.49898819 83.09695708 35.53393585 80.25261506 32.55664062 77.41943359 C27.66549223 81.48781532 23.08313309 85.76381437 18.61914062 90.29443359 C18.03068359 90.88740234 17.44222656 91.48037109 16.8359375 92.09130859 C15.40716388 93.53169825 13.98155931 94.9752303 12.55664062 96.41943359 C13.99732002 99.7859953 15.8051935 101.77332459 18.49414062 104.23193359 C22.65668561 108.33393247 25.40687917 111.53925037 25.64257812 117.64599609 C25.31395482 122.81748921 24.21290211 126.58035904 20.55664062 130.41943359 C15.37457292 133.34797687 11.020041 133.886838 5.15162659 132.5045166 C-0.42762737 130.17157386 -4.37583809 125.41725654 -8.53320312 121.15380859 C-9.5680564 120.11604729 -10.6041766 119.07954797 -11.64149475 118.04425049 C-13.8031355 115.87940547 -15.95245904 113.70326701 -18.09301758 111.51757812 C-20.83032484 108.72349845 -23.59134669 105.9544033 -26.36128902 103.19271469 C-28.4993415 101.05746556 -30.62703167 98.91213493 -32.75149727 96.76337433 C-33.76602815 95.73866978 -34.78309473 94.71646907 -35.80277824 93.69689178 C-37.22674853 92.26893457 -38.63603629 90.82638168 -40.04467773 89.38330078 C-40.84804062 88.56770691 -41.6514035 87.75211304 -42.47911072 86.9118042 C-45.58417756 82.97188687 -46.87816545 78.91057817 -46.38085938 73.91943359 C-45.68285196 69.04980539 -44.0262388 66.75802579 -40.44335938 63.41943359 C-36.48017873 61.12496059 -32.96527909 60.95957735 -28.44335938 61.41943359 C-21.19265177 63.62874941 -16.4558504 68.98923498 -11.44335938 74.41943359 C-8.08000344 72.96197935 -5.89801932 71.10825506 -3.33398438 68.50537109 C-2.20283203 67.36455078 -2.20283203 67.36455078 -1.04882812 66.20068359 C-0.27152344 65.40662109 0.50578125 64.61255859 1.30664062 63.79443359 C2.09941406 62.99263672 2.8921875 62.19083984 3.70898438 61.36474609 C5.66278556 59.38740514 7.61176165 57.40554451 9.55664062 55.41943359 C4.63875253 49.54506807 -0.53980034 43.97332736 -5.88085938 38.48193359 C-6.70134766 37.60730469 -7.52183594 36.73267578 -8.3671875 35.83154297 C-9.17478516 35.00589844 -9.98238281 34.18025391 -10.81445312 33.32958984 C-11.53560303 32.57814697 -12.25675293 31.8267041 -12.99975586 31.05249023 C-18.84072519 27.14897901 -28.26850537 30.09623798 -34.81689453 31.02416992 Z M81.55664062 157.41943359 C79.56336159 168.27658221 77.81920935 179.14114758 76.32455635 190.07777786 C75.87062911 193.38755274 75.40528812 196.69569666 74.94080257 200.00400352 C74.08225321 206.11956065 73.22813331 212.23564639 72.39331055 218.35449219 C71.80608169 222.65531936 71.20444955 226.95391962 70.59333611 231.25141525 C70.36519366 232.87487869 70.14232184 234.49909251 69.92502022 236.12404251 C69.62127941 238.3908334 69.29917023 240.65432625 68.97290039 242.91796875 C68.70667625 244.84293686 68.70667625 244.84293686 68.43507385 246.80679321 C66.5167688 254.69600561 61.787439 259.62479634 56.17774963 265.18600464 C55.05932117 266.31251141 55.05932117 266.31251141 53.91829818 267.4617759 C51.42535539 269.96899196 48.92186025 272.4653907 46.41821289 274.96191406 C44.62531545 276.76051557 42.83304909 278.55974634 41.04136658 280.35955811 C36.6812769 284.73573209 32.31416718 289.10478871 27.94340814 293.47030364 C24.38706709 297.02259605 20.83349034 300.57763155 17.28184319 304.13461685 C16.77547207 304.64173638 16.26910096 305.14885592 15.74738527 305.67134271 C14.71849454 306.70176502 13.6896072 307.73219071 12.6607232 308.76261975 C3.01633506 318.4207281 -6.63760692 328.06924206 -16.2945934 337.71475114 C-25.10890027 346.51914065 -33.91174555 355.33488651 -42.70911013 364.15620206 C-51.75868725 373.23022921 -60.81569821 382.29677364 -69.88082653 391.35526574 C-74.96337554 396.43433374 -80.04307079 401.51617474 -85.11507988 406.60577011 C-89.89012007 411.39716182 -94.67567178 416.1778106 -99.46826744 420.95165253 C-101.21914283 422.69885734 -102.9666664 424.44942895 -104.7104454 426.20371628 C-120.42055782 442.00120028 -133.66964419 453.39883612 -156.44335938 456.41943359 C-155.99224818 463.63721273 -153.2587018 468.7484677 -148.00585938 473.73193359 C-139.99080589 479.01013955 -132.64714001 479.57057823 -123.31008911 479.55314636 C-122.41207671 479.55541192 -121.51406431 479.55767748 -120.58883941 479.56001168 C-117.59127686 479.56632241 -114.59375985 479.56552421 -111.59619141 479.56469727 C-109.44230084 479.56769056 -107.28841081 479.57109348 -105.13452148 479.57487488 C-99.29153997 479.58370112 -93.44857311 479.5860524 -87.60558558 479.58669066 C-83.95359679 479.58740187 -80.30161173 479.58953752 -76.64962387 479.59218788 C-63.90492263 479.60143628 -51.16023183 479.60552334 -38.41552734 479.60473633 C-26.54185913 479.60413545 -14.66823634 479.61469053 -2.79457963 479.63047999 C7.40604455 479.64356057 17.60665389 479.64892002 27.80728638 479.64828092 C33.89684848 479.64802611 39.98637019 479.65086785 46.07592392 479.66145897 C51.80344385 479.67114878 57.53088486 479.67121302 63.25840759 479.66394234 C65.35740906 479.66289765 67.45641547 479.66525251 69.55540848 479.6713028 C72.42683233 479.67904192 75.2979849 479.67436518 78.16940308 479.66667175 C79.4069304 479.6743871 79.4069304 479.6743871 80.66945827 479.68225831 C90.14706902 479.62637573 98.39731929 477.96087729 105.55664062 471.41943359 C112.38678379 462.72782583 112.69815628 454.57389042 112.77110291 443.94206238 C112.78183525 442.89930863 112.7925676 441.85655489 112.80362517 440.78220254 C112.83800288 437.29436287 112.86530959 433.80650739 112.89233398 430.31860352 C112.91497663 427.81478682 112.93784504 425.31097215 112.96092224 422.80715942 C113.16295996 399.95566611 113.27526229 377.10339967 113.36414242 354.25121593 C113.37624846 351.19343665 113.38858235 348.13565839 113.40112305 345.07788086 C113.40578331 343.93801901 113.40578331 343.93801901 113.41053773 342.77512965 C113.46229254 330.48465464 113.56644639 318.19517559 113.69091528 305.90524551 C113.81790796 293.26013306 113.89112631 280.6155367 113.91454989 267.96980363 C113.92913836 260.88035405 113.96737942 253.79277482 114.06742668 246.70396996 C114.16167426 240.0258996 114.18363105 233.3513528 114.15844154 226.67248917 C114.16068078 224.23364781 114.18656236 221.79468437 114.23897552 219.35640526 C114.5532449 203.94173991 112.6279452 194.54247097 101.98499393 183.02684498 C101.39374324 182.41265977 100.80249254 181.79847455 100.19332516 181.16567767 C97.96703965 178.79036478 96.11575407 176.26414452 94.23242188 173.61083984 C93.65943359 172.82515625 93.08644531 172.03947266 92.49609375 171.22998047 C91.69075195 170.11719727 91.69075195 170.11719727 90.86914062 168.98193359 C89.72182049 167.39814684 88.57217814 165.81603904 87.41992188 164.23583984 C86.93821533 163.57011963 86.45650879 162.90439941 85.96020508 162.21850586 C84.59797704 160.47241812 83.13418813 158.96936912 81.55664062 157.41943359 Z " fill="#000000" transform="translate(369.443359375,2.58056640625)"/>
<path d="M0 0 C3.91476284 2.79625917 6.17130501 5.22995016 7.00947762 10.11651134 C7.48707442 20.92306268 3.61126272 30.5936865 0.20263672 40.67895508 C-0.48862093 42.76736895 -1.17834342 44.85629149 -1.86665344 46.94567871 C-3.73250587 52.59348426 -5.62086605 58.23351895 -7.51437616 63.87210298 C-9.49647142 69.78418153 -11.46068834 75.70219969 -13.42770386 81.61930847 C-16.94364865 92.18547691 -20.47745011 102.74558813 -24.01854883 113.30334797 C-27.2247956 122.86435593 -30.41296994 132.43123143 -33.58789062 142.00268555 C-37.67637449 154.32822012 -41.78175027 166.64800556 -45.90081406 178.96335411 C-47.47074016 183.65848092 -49.03394251 188.35576654 -50.59170914 193.05494118 C-52.42680176 198.58813863 -54.27806611 204.11566316 -56.14185143 209.63925934 C-56.82234324 211.66462003 -57.49725854 213.69186437 -58.1661129 215.72109795 C-59.08155621 218.49533612 -60.01715046 221.26197024 -60.95803833 224.02766418 C-61.21681861 224.82786084 -61.47559889 225.6280575 -61.742221 226.45250255 C-63.93309856 232.77752631 -67.14824616 238.15406462 -73.1875 241.375 C-78.4865461 242.20622292 -83.20101754 241.74459298 -88.1875 239.75 C-91.8293394 236.62842337 -94.08662656 233.39564112 -94.63251191 228.62411618 C-94.66468714 222.52400745 -93.7199046 217.48839544 -91.73771667 211.74041748 C-91.45398471 210.87856063 -91.17025274 210.01670378 -90.87792283 209.12873006 C-89.93171366 206.26676774 -88.96437993 203.4124272 -87.99682617 200.55761719 C-87.31077198 198.49736232 -86.62602719 196.43667102 -85.94248962 194.37557983 C-84.08816476 188.79695759 -82.21530166 183.22472185 -80.33875823 177.65354061 C-78.3760271 171.81681795 -76.42965041 165.97464537 -74.48127747 160.13311768 C-71.20837046 150.32821569 -67.92429562 140.52711436 -64.63256836 130.72851562 C-60.40840986 118.15414701 -56.20228902 105.57382364 -52.00199413 92.99146652 C-48.38834972 82.16679966 -44.76691924 71.34474062 -41.14398789 60.52317905 C-39.98061234 57.04730402 -38.81821264 53.5711037 -37.65590477 50.09487152 C-35.82922123 44.63341062 -33.99770134 39.17359423 -32.16242409 33.71501541 C-31.48971074 31.71202147 -30.81849706 29.70852313 -30.14889526 27.70448685 C-29.23449819 24.96878992 -28.31459636 22.23500558 -27.39323425 19.50164795 C-26.99779247 18.3124466 -26.99779247 18.3124466 -26.59436196 17.09922099 C-24.28176996 10.27383075 -21.92404174 4.73041153 -16.375 -0.125 C-10.9465082 -1.93449727 -5.4118739 -1.80395797 0 0 Z " fill="#000000" transform="translate(268.375,114.125)"/>
<path d="M0 0 C11.08283461 6.94772657 19.01178333 16.79750042 22.0390625 29.66796875 C24.28325832 43.80083829 21.51260947 56.41411115 13.4140625 68.2109375 C6.07220742 77.60308476 -4.73223324 83.82257635 -16.58203125 85.45703125 C-30.74816996 86.37097568 -43.39905147 83.28078851 -54.26953125 73.875 C-63.33197396 64.76469228 -68.54703644 53.44324448 -68.73828125 40.58203125 C-68.56765928 26.82369625 -64.04602537 16.48253886 -54.80078125 6.33203125 C-40.18964732 -7.51159175 -17.32272234 -9.43639663 0 0 Z M-35.30078125 31.33203125 C-37.17393368 34.97974915 -37.59487174 38.56566838 -37.48828125 42.64453125 C-35.79972548 47.80952537 -32.99542596 50.66811493 -28.48828125 53.64453125 C-24.52288932 54.93466874 -21.29709358 54.91413536 -17.30078125 53.58203125 C-13.45270887 50.93113694 -10.60434272 47.87665419 -8.48828125 43.64453125 C-8.08496697 38.40144556 -8.62776992 35.08325572 -11.48828125 30.64453125 C-16.14342671 26.44354632 -19.01864084 25.29017035 -25.16796875 25.359375 C-29.55275737 25.89824633 -32.18182324 28.4281738 -35.30078125 31.33203125 Z " fill="#000000" transform="translate(332.48828125,194.35546875)"/>
<path d="M0 0 C1.12148437 0.00737183 1.12148437 0.00737183 2.265625 0.01489258 C13.99455403 0.26263317 24.34535704 4.70002223 33.0625 12.58984375 C43.16024514 23.29442454 46.20228308 35.41812091 45.9609375 49.6875 C45.44630618 62.20170307 39.32361461 72.12040015 30.4375 80.625 C21.08457198 88.48527058 8.87526949 92.36316978 -3.3125 91.3125 C-14.92441947 90.23279521 -26.47467354 84.5640696 -34.34375 75.9609375 C-42.8096357 64.57230555 -46.17897772 52.88238458 -44.84765625 38.7734375 C-42.81305468 25.61535729 -35.97058183 15.16041234 -25.3125 7.3125 C-17.27017446 2.46742926 -9.39042901 -0.07323006 0 0 Z M-11.671875 37.078125 C-14.04868545 41.21312401 -14.91459529 44.71815345 -13.98046875 49.42578125 C-12.27503896 54.24287241 -9.25383634 56.77210321 -4.9375 59.25 C0.53632773 60.85439778 3.94552889 60.25048445 8.9375 57.5625 C12.38615389 54.74087409 14.32823421 52.70760526 15.00390625 48.203125 C15.28753396 42.75015354 14.40388865 39.51788716 10.6875 35.3125 C6.85554405 32.0030835 3.85951882 30.62224263 -1.29296875 30.9375 C-5.71589071 31.75877758 -8.91090321 33.4920352 -11.671875 37.078125 Z " fill="#000000" transform="translate(139.3125,188.6875)"/>
</svg>
